<?xml version="1.0" encoding="utf-8"?>
<!-- Generator: Adobe Illustrator 16.0.0, SVG Export Plug-In . SVG Version: 6.00 Build 0)  -->
<!DOCTYPE svg PUBLIC "-//W3C//DTD SVG 1.1//EN" "http://www.w3.org/Graphics/SVG/1.1/DTD/svg11.dtd">
<svg version="1.1" id="圖層_1" xmlns="http://www.w3.org/2000/svg" xmlns:xlink="http://www.w3.org/1999/xlink" x="0px" y="0px"
	 width="300.016px" height="432.995px" viewBox="0 0 300.016 432.995" enable-background="new 0 0 300.016 432.995"
	 xml:space="preserve">
<g>
	<path fill="none" d="M76,130.77v42.436v42.436l73.5-42.436L76,130.77z M103.293,157.629c0,0,0.924,0.371,1.053,1.676
		c0,0,0.311,4.15-2.041,8.119c-0.129,0.211-0.248-3.598-0.688-8.742C101.617,158.682,102.057,157.377,103.293,157.629z
		 M92.51,177.652c-2.605,2.982-6.139,1.988-6.139,1.988c-1.367-0.436-1.434-1.803-1.434-1.803c0.383-0.615,1.498-0.682,1.498-0.682
		c2.414,0.127,5.514-0.43,5.514-0.43C92.99,176.563,92.51,177.652,92.51,177.652z M108.625,182.307
		c-3.588,1.859-9.922,3.225-9.922,3.225c3.723-2.172,6.973-5.732,6.973-5.732c1.406-1.545,2.207-4.811,2.207-4.811
		c0.994-2.975,2.045-7.555,2.045-7.555c0.162-0.686,0.559-0.568,0.559-0.568c0.5,5.027,0.25,8.494,0.25,8.494
		C110.736,181.314,108.625,182.307,108.625,182.307z"/>

	<path fill="none" d="M225.999,86.603v42.435l73.5-42.435l-73.5-42.435V86.603z M253.292,71.026c0,0,0.924,0.372,1.053,1.676
		c0,0,0.311,4.15-2.041,8.119c-0.129,0.212-0.248-3.598-0.688-8.742C251.616,72.079,252.056,70.774,253.292,71.026z M255.675,93.196
		c1.406-1.544,2.207-4.811,2.207-4.811c0.994-2.975,2.045-7.555,2.045-7.555c0.162-0.685,0.559-0.568,0.559-0.568
		c0.5,5.028,0.25,8.494,0.25,8.494c0,5.955-2.111,6.947-2.111,6.947c-3.588,1.859-9.922,3.226-9.922,3.226
		C252.425,96.756,255.675,93.196,255.675,93.196z M236.435,90.553c2.414,0.127,5.514-0.43,5.514-0.43
		c1.041-0.164,0.561,0.927,0.561,0.927c-2.605,2.982-6.139,1.987-6.139,1.987c-1.367-0.436-1.434-1.803-1.434-1.803
		C235.319,90.62,236.435,90.553,236.435,90.553z"/>

	<path fill="none" d="M151,432.147l73.499-42.438L151,347.276V432.147z M178.293,374.134c0,0,0.924,0.371,1.053,1.676
		c0,0,0.311,4.15-2.041,8.119c-0.129,0.211-0.248-3.598-0.688-8.742C176.617,375.187,177.057,373.882,178.293,374.134z
		 M180.676,396.304c1.406-1.545,2.207-4.811,2.207-4.811c0.994-2.975,2.045-7.555,2.045-7.555c0.162-0.686,0.559-0.568,0.559-0.568
		c0.5,5.027,0.25,8.494,0.25,8.494c0,5.955-2.111,6.947-2.111,6.947c-3.588,1.859-9.922,3.225-9.922,3.225
		C177.426,399.864,180.676,396.304,180.676,396.304z M161.436,393.661c2.414,0.127,5.514-0.43,5.514-0.43
		c1.041-0.164,0.561,0.926,0.561,0.926c-2.605,2.982-6.139,1.988-6.139,1.988c-1.367-0.436-1.434-1.803-1.434-1.803
		C160.32,393.728,161.436,393.661,161.436,393.661z"/>

	<path fill="#040000" d="M75,390.575v42.42h1v-42.42l73.471,42.42h2.059l73.47-42.42v42.42h1v-42.42l73.471,42.42h0.546v-0.838
		l-73.517-42.447l73.517-42.443v-1.713l-73.517-42.445l73.517-42.444v-1.713l-73.517-42.445l73.517-42.444v-1.713l-73.517-42.444
		l73.517-42.445v-1.713l-73.517-42.445l73.517-42.445V0h-0.517l-73.5,42.435V0h-1v42.435L151.5,0h-2L76,42.435V0h-1v42.436L1.5,0
		H0.001v0v86.6C0.001,86.602,0,86.602,0,86.603v86.603v86.603v86.602v86.586h1.529L75,390.575z M225.999,86.603V44.167l73.5,42.435
		l-73.5,42.435V86.603z M225.999,173.205V130.77l73.5,42.436l-73.5,42.436V173.205z M225.999,259.808v-42.435l73.5,42.435
		l-73.5,42.436V259.808z M225.999,346.409v-42.434l73.501,42.434l-73.501,42.436V346.409z M150,432.147L76.5,389.71l73.5-42.436
		V432.147z M150,345.544l-73.5-42.436l73.5-42.435V345.544z M150,258.941l-73.5-42.436l73.5-42.435V258.941z M150,172.339
		l-73.5-42.435L150,87.469V172.339z M224.999,346.409v42.436l-73.5-42.436l73.5-42.434V346.409z M224.999,259.808v42.436
		L151.5,259.808l73.499-42.435V259.808z M224.999,173.205v42.436L151.5,173.205l73.499-42.436V173.205z M224.999,86.603v42.435
		L151.5,86.603l73.499-42.435V86.603z M151,0.866l73.499,42.435L151,85.736V0.866z M151,87.469l73.499,42.436L151,172.339V87.469z
		 M151,174.071l73.499,42.435L151,258.941V174.071z M151,260.674l73.499,42.435L151,345.544V260.674z M151,347.276l73.499,42.434
		L151,432.147V347.276z M150,0.866v84.87L76.5,43.301L150,0.866z M76,86.603V44.167l73.5,42.435L76,129.037V86.603z M76,173.205
		V130.77l73.5,42.436L76,215.641V173.205z M76,259.808v-42.435l73.5,42.435L76,302.243V259.808z M76,346.409v-42.434l73.501,42.434
		L76,388.845V346.409z M75,346.409v42.436L1.499,346.409L75,303.976V346.409z M75,259.808v42.436L1.5,259.808L75,217.373V259.808z
		 M75,173.205v42.436L1.5,173.205L75,130.77V173.205z M75,86.603v42.435L1.5,86.603L75,44.167V86.603z M1.001,0.867l73.498,42.435
		L1.001,85.736V0.867z M1,87.469l73.5,42.436L1,172.339V87.469z M1,174.071l73.5,42.435L1,258.941V174.071z M1,260.674l73.5,42.435
		L1,345.544V260.674z M1,347.276l73.5,42.434L1,432.147V347.276z"/>
</g>
</svg>
