<?xml version="1.0" encoding="utf-8"?>
<!-- Generator: Adobe Illustrator 16.0.0, SVG Export Plug-In . SVG Version: 6.00 Build 0)  -->
<!DOCTYPE svg PUBLIC "-//W3C//DTD SVG 1.1//EN" "http://www.w3.org/Graphics/SVG/1.1/DTD/svg11.dtd">
<svg version="1.1" id="圖層_1" xmlns="http://www.w3.org/2000/svg" xmlns:xlink="http://www.w3.org/1999/xlink" x="0px" y="0px"
	 width="300.016px" height="432.995px" viewBox="0 0 300.016 432.995" enable-background="new 0 0 300.016 432.995"
	 xml:space="preserve">
<g>
	<path fill="none" d="M76,130.77v42.436v42.436l73.5-42.436L76,130.77z M103.293,157.629c0,0,0.924,0.371,1.053,1.676
		c0,0,0.311,4.15-2.041,8.119c-0.129,0.211-0.248-3.598-0.688-8.742C101.617,158.682,102.057,157.377,103.293,157.629z
		 M92.51,177.652c-2.605,2.982-6.139,1.988-6.139,1.988c-1.367-0.436-1.434-1.803-1.434-1.803c0.383-0.615,1.498-0.682,1.498-0.682
		c2.414,0.127,5.514-0.43,5.514-0.43C92.99,176.563,92.51,177.652,92.51,177.652z M108.625,182.307
		c-3.588,1.859-9.922,3.225-9.922,3.225c3.723-2.172,6.973-5.732,6.973-5.732c1.406-1.545,2.207-4.811,2.207-4.811
		c0.994-2.975,2.045-7.555,2.045-7.555c0.162-0.686,0.559-0.568,0.559-0.568c0.5,5.027,0.25,8.494,0.25,8.494
		C110.736,181.314,108.625,182.307,108.625,182.307z"/>
	<polygon fill="none" points="76,217.373 76,259.808 76,302.243 149.5,259.808 	"/>
	<polygon fill="none" points="76,44.167 76,86.603 76,129.037 149.5,86.603 	"/>
	<polygon fill="none" points="75,215.641 75,173.205 75,130.77 1.5,173.205 	"/>
	<polygon fill="none" points="75,129.037 75,86.603 75,44.167 1.5,86.603 	"/>
	<polygon fill="none" points="76,303.976 76,346.409 76,388.845 149.501,346.409 	"/>
	<polygon fill="none" points="150,258.941 150,174.071 76.5,216.506 	"/>
	<polygon fill="none" points="150,85.736 150,0.866 76.5,43.301 	"/>
	<polygon fill="none" points="150,345.544 150,260.674 76.5,303.108 	"/>
	<polygon fill="none" points="150,432.147 150,347.274 76.5,389.71 	"/>
	<polygon fill="none" points="151,0.866 151,85.736 224.499,43.301 	"/>
	<polygon fill="none" points="75,302.243 75,259.808 75,217.373 1.5,259.808 	"/>
	<polygon fill="none" points="149.5,0 76,0 76,42.435 	"/>
	<polygon fill="none" points="75,0 1.5,0 75,42.436 	"/>
	<polygon fill="none" points="299.499,0 225.999,0 225.999,42.435 	"/>
	<polygon fill="none" points="75,388.845 75,346.409 75,303.976 1.499,346.409 	"/>
	<polygon fill="none" points="224.999,0 151.5,0 224.999,42.435 	"/>
	<polygon fill="none" points="1.001,0.867 1.001,85.736 74.499,43.301 	"/>
	<polygon fill="none" points="1,432.147 74.5,389.71 1,347.276 	"/>
	<polygon fill="none" points="1,260.674 1,345.544 74.5,303.108 	"/>
	<polygon fill="none" points="1,174.071 1,258.941 74.5,216.506 	"/>
	<polygon fill="none" points="1,87.469 1,172.339 74.5,129.904 	"/>
	<polygon fill="none" points="150,172.339 150,87.469 76.5,129.904 	"/>
	<polygon fill="none" points="224.999,215.641 224.999,173.205 224.999,130.77 151.5,173.205 	"/>
	<polygon fill="none" points="224.999,129.037 224.999,86.603 224.999,44.167 151.5,86.603 	"/>
	<polygon fill="none" points="224.999,302.243 224.999,259.808 224.999,217.373 151.5,259.808 	"/>
	<polygon fill="none" points="225.999,346.409 225.999,388.845 299.5,346.409 225.999,303.976 	"/>
	<path fill="none" d="M225.999,86.603v42.435l73.5-42.435l-73.5-42.435V86.603z M253.292,71.026c0,0,0.924,0.372,1.053,1.676
		c0,0,0.311,4.15-2.041,8.119c-0.129,0.212-0.248-3.598-0.688-8.742C251.616,72.079,252.056,70.774,253.292,71.026z M255.675,93.196
		c1.406-1.544,2.207-4.811,2.207-4.811c0.994-2.975,2.045-7.555,2.045-7.555c0.162-0.685,0.559-0.568,0.559-0.568
		c0.5,5.028,0.25,8.494,0.25,8.494c0,5.955-2.111,6.947-2.111,6.947c-3.588,1.859-9.922,3.226-9.922,3.226
		C252.425,96.756,255.675,93.196,255.675,93.196z M236.435,90.553c2.414,0.127,5.514-0.43,5.514-0.43
		c1.041-0.164,0.561,0.927,0.561,0.927c-2.605,2.982-6.139,1.987-6.139,1.987c-1.367-0.436-1.434-1.803-1.434-1.803
		C235.319,90.62,236.435,90.553,236.435,90.553z"/>
	<polygon fill="none" points="225.999,259.808 225.999,302.243 299.499,259.808 225.999,217.373 	"/>
	<polygon fill="none" points="224.999,388.845 224.999,346.409 224.999,303.976 151.499,346.409 	"/>
	<polygon fill="none" points="225.999,173.205 225.999,215.641 299.499,173.205 225.999,130.77 	"/>
	<polygon fill="none" points="151,174.071 151,258.941 224.499,216.506 	"/>
	<polygon fill="none" points="151,87.469 151,172.339 224.499,129.904 	"/>
	<polygon fill="none" points="151,260.674 151,345.544 224.499,303.108 	"/>
	<path fill="none" d="M151,432.147l73.499-42.438L151,347.276V432.147z M178.293,374.134c0,0,0.924,0.371,1.053,1.676
		c0,0,0.311,4.15-2.041,8.119c-0.129,0.211-0.248-3.598-0.688-8.742C176.617,375.187,177.057,373.882,178.293,374.134z
		 M180.676,396.304c1.406-1.545,2.207-4.811,2.207-4.811c0.994-2.975,2.045-7.555,2.045-7.555c0.162-0.686,0.559-0.568,0.559-0.568
		c0.5,5.027,0.25,8.494,0.25,8.494c0,5.955-2.111,6.947-2.111,6.947c-3.588,1.859-9.922,3.225-9.922,3.225
		C177.426,399.864,180.676,396.304,180.676,396.304z M161.436,393.661c2.414,0.127,5.514-0.43,5.514-0.43
		c1.041-0.164,0.561,0.926,0.561,0.926c-2.605,2.982-6.139,1.988-6.139,1.988c-1.367-0.436-1.434-1.803-1.434-1.803
		C160.32,393.728,161.436,393.661,161.436,393.661z"/>
	<path fill="#040000" d="M252.304,80.821c2.352-3.969,2.041-8.119,2.041-8.119c-0.129-1.304-1.053-1.676-1.053-1.676
		c-1.236-0.252-1.676,1.053-1.676,1.053C252.056,77.223,252.175,81.033,252.304,80.821z"/>
	<path fill="#040000" d="M236.37,93.038c0,0,3.533,0.995,6.139-1.987c0,0,0.48-1.091-0.561-0.927c0,0-3.1,0.557-5.514,0.43
		c0,0-1.115,0.066-1.498,0.682C234.937,91.235,235.003,92.602,236.37,93.038z"/>
	<path fill="#040000" d="M260.735,88.756c0,0,0.25-3.466-0.25-8.494c0,0-0.396-0.116-0.559,0.568c0,0-1.051,4.58-2.045,7.555
		c0,0-0.801,3.267-2.207,4.811c0,0-3.25,3.561-6.973,5.733c0,0,6.334-1.366,9.922-3.226
		C258.624,95.704,260.735,94.711,260.735,88.756z"/>
	<path fill="#040000" d="M102.305,167.424c2.352-3.969,2.041-8.119,2.041-8.119c-0.129-1.305-1.053-1.676-1.053-1.676
		c-1.236-0.252-1.676,1.053-1.676,1.053C102.057,163.826,102.176,167.635,102.305,167.424z"/>
	<path fill="#040000" d="M91.949,176.727c0,0-3.1,0.557-5.514,0.43c0,0-1.115,0.066-1.498,0.682c0,0,0.066,1.367,1.434,1.803
		c0,0,3.533,0.994,6.139-1.988C92.51,177.652,92.99,176.563,91.949,176.727z"/>
	<path fill="#040000" d="M110.486,166.865c0,0-0.396-0.117-0.559,0.568c0,0-1.051,4.58-2.045,7.555c0,0-0.801,3.266-2.207,4.811
		c0,0-3.25,3.561-6.973,5.732c0,0,6.334-1.365,9.922-3.225c0,0,2.111-0.992,2.111-6.947
		C110.736,175.359,110.986,171.893,110.486,166.865z"/>
	<path fill="#040000" d="M177.305,383.929c2.352-3.969,2.041-8.119,2.041-8.119c-0.129-1.305-1.053-1.676-1.053-1.676
		c-1.236-0.252-1.676,1.053-1.676,1.053C177.057,380.331,177.176,384.14,177.305,383.929z"/>
	<path fill="#040000" d="M161.371,396.146c0,0,3.533,0.994,6.139-1.988c0,0,0.48-1.09-0.561-0.926c0,0-3.1,0.557-5.514,0.43
		c0,0-1.115,0.066-1.498,0.682C159.938,394.343,160.004,395.71,161.371,396.146z"/>
	<path fill="#040000" d="M185.736,391.864c0,0,0.25-3.467-0.25-8.494c0,0-0.396-0.117-0.559,0.568c0,0-1.051,4.58-2.045,7.555
		c0,0-0.801,3.266-2.207,4.811c0,0-3.25,3.561-6.973,5.732c0,0,6.334-1.365,9.922-3.225
		C183.625,398.812,185.736,397.819,185.736,391.864z"/>
	<polygon fill="none" points="224.999,388.845 224.999,346.409 224.999,303.976 151.499,346.409 	"/>
	<polygon fill="none" points="150,172.339 150,87.469 76.5,129.904 	"/>
	<polygon fill="none" points="150,258.941 150,174.071 76.5,216.506 	"/>
	<polygon fill="none" points="224.999,215.641 224.999,173.205 224.999,130.77 151.5,173.205 	"/>
	<polygon fill="none" points="151,0.866 151,85.736 224.499,43.301 	"/>
	<polygon fill="none" points="151,174.071 151,258.941 224.499,216.506 	"/>
	<polygon fill="none" points="151,87.469 151,172.339 224.499,129.904 	"/>
	<polygon fill="none" points="150,345.544 150,260.674 76.5,303.108 	"/>
	<polygon fill="none" points="224.999,129.037 224.999,86.603 224.999,44.167 151.5,86.603 	"/>
	<polygon fill="none" points="225.999,130.77 225.999,173.205 225.999,215.641 299.499,173.205 	"/>
	<polygon fill="none" points="151.529,432.995 224.999,432.995 224.999,390.575 	"/>
	<polygon fill="none" points="150,432.147 150,347.274 76.5,389.71 	"/>
	<polygon fill="none" points="76,432.995 149.471,432.995 76,390.575 	"/>
	<polygon fill="none" points="1.529,432.995 75,432.995 75,390.575 	"/>
	<polygon fill="none" points="225.999,432.995 299.47,432.995 225.999,390.575 	"/>
	<polygon fill="none" points="225.999,303.976 225.999,346.409 225.999,388.845 299.5,346.409 	"/>
	<polygon fill="none" points="225.999,44.167 225.999,86.603 225.999,129.037 299.499,86.603 	"/>
	<polygon fill="none" points="225.999,217.373 225.999,259.808 225.999,302.243 299.499,259.808 	"/>
	<polygon fill="none" points="151,260.674 151,345.544 224.499,303.108 	"/>
	<polygon fill="none" points="224.999,302.243 224.999,259.808 224.999,217.373 151.5,259.808 	"/>
	<polygon fill="none" points="151,347.276 151,432.147 224.499,389.71 	"/>
	<polygon fill="none" points="1.001,0.867 1.001,85.736 74.499,43.301 	"/>
	<polygon fill="none" points="75,129.037 75,86.603 75,44.167 1.5,86.603 	"/>
	<polygon fill="none" points="75,215.641 75,173.205 75,130.77 1.5,173.205 	"/>
	<polygon fill="none" points="1,174.071 1,258.941 74.5,216.506 	"/>
	<polygon fill="none" points="1,260.674 1,345.544 74.5,303.108 	"/>
	<polygon fill="none" points="1,347.276 1,432.147 74.5,389.71 	"/>
	<polygon fill="none" points="1,87.469 1,172.339 74.5,129.904 	"/>
	<polygon fill="none" points="76,217.373 76,259.808 76,302.243 149.5,259.808 	"/>
	<polygon fill="none" points="75,302.243 75,259.808 75,217.373 1.5,259.808 	"/>
	<polygon fill="none" points="76,44.167 76,86.603 76,129.037 149.5,86.603 	"/>
	<polygon fill="none" points="76,130.77 76,173.205 76,215.641 149.5,173.205 	"/>
	<polygon fill="none" points="150,0.866 76.5,43.301 150,85.736 	"/>
	<polygon fill="none" points="75,388.845 75,346.409 75,303.976 1.499,346.409 	"/>
	<polygon fill="none" points="76,303.976 76,346.409 76,388.845 149.501,346.409 	"/>
	<path fill="#040000" d="M75,390.575v42.42h1v-42.42l73.471,42.42h2.059l73.47-42.42v42.42h1v-42.42l73.471,42.42h0.546v-0.838
		l-73.517-42.447l73.517-42.443v-1.713l-73.517-42.445l73.517-42.444v-1.713l-73.517-42.445l73.517-42.444v-1.713l-73.517-42.444
		l73.517-42.445v-1.713l-73.517-42.445l73.517-42.445V0h-0.517l-73.5,42.435V0h-1v42.435L151.5,0h-2L76,42.435V0h-1v42.436L1.5,0
		H0.001v0v86.6C0.001,86.602,0,86.602,0,86.603v86.603v86.603v86.602v86.586h1.529L75,390.575z M225.999,86.603V44.167l73.5,42.435
		l-73.5,42.435V86.603z M225.999,173.205V130.77l73.5,42.436l-73.5,42.436V173.205z M225.999,259.808v-42.435l73.5,42.435
		l-73.5,42.436V259.808z M225.999,346.409v-42.434l73.501,42.434l-73.501,42.436V346.409z M150,432.147L76.5,389.71l73.5-42.436
		V432.147z M150,345.544l-73.5-42.436l73.5-42.435V345.544z M150,258.941l-73.5-42.436l73.5-42.435V258.941z M150,172.339
		l-73.5-42.435L150,87.469V172.339z M224.999,346.409v42.436l-73.5-42.436l73.5-42.434V346.409z M224.999,259.808v42.436
		L151.5,259.808l73.499-42.435V259.808z M224.999,173.205v42.436L151.5,173.205l73.499-42.436V173.205z M224.999,86.603v42.435
		L151.5,86.603l73.499-42.435V86.603z M151,0.866l73.499,42.435L151,85.736V0.866z M151,87.469l73.499,42.436L151,172.339V87.469z
		 M151,174.071l73.499,42.435L151,258.941V174.071z M151,260.674l73.499,42.435L151,345.544V260.674z M151,347.276l73.499,42.434
		L151,432.147V347.276z M150,0.866v84.87L76.5,43.301L150,0.866z M76,86.603V44.167l73.5,42.435L76,129.037V86.603z M76,173.205
		V130.77l73.5,42.436L76,215.641V173.205z M76,259.808v-42.435l73.5,42.435L76,302.243V259.808z M76,346.409v-42.434l73.501,42.434
		L76,388.845V346.409z M75,346.409v42.436L1.499,346.409L75,303.976V346.409z M75,259.808v42.436L1.5,259.808L75,217.373V259.808z
		 M75,173.205v42.436L1.5,173.205L75,130.77V173.205z M75,86.603v42.435L1.5,86.603L75,44.167V86.603z M1.001,0.867l73.498,42.435
		L1.001,85.736V0.867z M1,87.469l73.5,42.436L1,172.339V87.469z M1,174.071l73.5,42.435L1,258.941V174.071z M1,260.674l73.5,42.435
		L1,345.544V260.674z M1,347.276l73.5,42.434L1,432.147V347.276z"/>
</g>
</svg>
